<?xml version="1.0" encoding="UTF-8"?>
<svg version="1.1" xmlns="http://www.w3.org/2000/svg" width="137" height="132">
<path d="M0 0 C3.28960166 0.5671727 4.90386681 1.39005143 7 4 C7.4765625 6.2265625 7.4765625 6.2265625 7.625 8.625 C7.60877773 11.61148183 7.60877773 11.61148183 9 14 C9.33 11.03 9.66 8.06 10 5 C11.32 4.67 12.64 4.34 14 4 C16.27928513 8.51761043 16.27072162 12.79237708 16.22705078 17.73754883 C16.22734283 18.60634674 16.22763489 19.47514465 16.22793579 20.37026978 C16.22654608 23.23262634 16.2110017 26.09472034 16.1953125 28.95703125 C16.1915811 30.94528562 16.18873473 32.93354184 16.18673706 34.92179871 C16.17911063 40.14803162 16.15947059 45.3741529 16.1373291 50.6003418 C16.11684938 55.9360198 16.10773079 61.27171588 16.09765625 66.60742188 C16.07622381 77.07166356 16.04209976 87.53582249 16 98 C16.66 98 17.32 98 18 98 C18 92.06 18 86.12 18 80 C21.465 79.01 21.465 79.01 25 78 C27.02478463 76.89350331 27.02478463 76.89350331 28 75 C28.58345476 72.04253508 28.58345476 72.04253508 28 69 C26.12498069 66.62280307 26.12498069 66.62280307 24 65 C24.495 65.556875 24.99 66.11375 25.5 66.6875 C27.31567651 69.48666796 27.65420677 70.72896614 27 74 C24.75 76.3125 24.75 76.3125 22 78 C20.68 78 19.36 78 18 78 C17.9131671 74.541824 17.85966718 71.08392656 17.8125 67.625 C17.78736328 66.64015625 17.76222656 65.6553125 17.73632812 64.640625 C17.72666016 63.69960937 17.71699219 62.75859375 17.70703125 61.7890625 C17.6913208 60.91975098 17.67561035 60.05043945 17.65942383 59.15478516 C17.77181396 58.44370605 17.8842041 57.73262695 18 57 C21.23132509 54.84578327 21.79239149 54.82277111 25.4375 55.0625 C28.21481084 55.10301183 29.79155579 55.08776598 32.375 54 C34.43056771 51.47007051 35.31104732 48.92922111 36.2890625 45.83984375 C37 44 37 44 39 42 C40.32 42 41.64 42 43 42 C43 41.34 43 40.68 43 40 C38.00280278 41.34494179 38.00280278 41.34494179 34.8203125 45.1328125 C34.19325763 46.74449898 33.5669478 48.35647555 32.94140625 49.96875 C32 52 32 52 29.8125 53.5625 C25.85861985 54.17754802 21.99162108 54.15653416 18 54 C17.91902676 51.72975032 17.86082296 49.45867925 17.8125 47.1875 C17.76029297 45.29064453 17.76029297 45.29064453 17.70703125 43.35546875 C18 40 18 40 19.375 38.125 C21.17873069 36.87626337 22.99906284 35.89697183 25 35 C21.535 35.495 21.535 35.495 18 36 C17.9127747 31.60429206 17.85953131 27.20880729 17.8125 22.8125 C17.78736328 21.56662109 17.76222656 20.32074219 17.73632812 19.03710938 C17.72666016 17.83505859 17.71699219 16.63300781 17.70703125 15.39453125 C17.6913208 14.28956299 17.67561035 13.18459473 17.65942383 12.04614258 C18.15645917 7.60061576 19.82524758 5.00693065 23.1875 2.125 C27.05109954 0.57956018 30.04199167 0.7939811 34 2 C36.5625 3.875 36.5625 3.875 39 6 C40.175625 6.45375 41.35125 6.9075 42.5625 7.375 C46.60788811 9.28736529 47.92338507 11.09596393 50 15 C50 15.66 50 16.32 50 17 C50.5775 17.0825 51.155 17.165 51.75 17.25 C54.84690637 18.28230212 55.98625717 19.40162216 58 22 C58.52034689 23.4651873 58.99595636 24.94667005 59.4375 26.4375 C60.72157056 30.75084199 62.56539358 33.01731548 66 36 C67.16968953 38.33937907 67.13364221 39.77369368 67.125 42.375 C67.12886719 43.53128906 67.12886719 43.53128906 67.1328125 44.7109375 C67 47 67 47 66.40234375 49.1484375 C65.73548596 51.16873228 65.73548596 51.16873228 67.4375 53.25 C70.1516921 58.0269781 69.4308763 62.08422204 68.2734375 67.23046875 C65.16122457 78.42684453 65.16122457 78.42684453 60 82 C59.01 82 58.02 82 57 82 C56.773125 83.0725 56.54625 84.145 56.3125 85.25 C54.81013324 89.54247647 53.83378091 90.66639423 50 93 C47.96916019 93.79134116 45.9214764 94.50548176 43.859375 95.2109375 C41.32760764 96.28534298 39.82034846 97.9773906 38 100 C33.5899187 101.4700271 29.02811884 101.91036877 24.74609375 99.98828125 C24.16988281 99.66214844 23.59367187 99.33601563 23 99 C23.25642304 100.91864771 23.53073436 102.83490994 23.8125 104.75 C23.96332031 105.81734375 24.11414063 106.8846875 24.26953125 107.984375 C25.02965571 111.12242892 25.72588318 112.73118415 28 115 C31.71339984 116.65039993 36.00636435 116.07234847 40 116 C48.53608247 115.84536082 48.53608247 115.84536082 52 117 C52 118.32 52 119.64 52 121 C47.38073037 121.74708182 43.00668067 122.10506956 38.33032227 122.02172852 C36.40912315 121.99158409 36.40912315 121.99158409 34.44911194 121.96083069 C33.071541 121.93364271 31.69397248 121.90633174 30.31640625 121.87890625 C28.89152332 121.85457054 27.46663187 121.83072878 26.04173279 121.80735779 C22.31151549 121.74485979 18.58145105 121.67569822 14.85137939 121.60510254 C11.03705745 121.53410719 7.22262808 121.46947768 3.40820312 121.40429688 C-4.06131683 121.27572724 -11.53068667 121.14011091 -19 121 C-19 119.68 -19 118.36 -19 117 C-17.70964844 116.96261719 -16.41929688 116.92523438 -15.08984375 116.88671875 C-13.37236851 116.82102298 -11.65492185 116.7545769 -9.9375 116.6875 C-9.08994141 116.66494141 -8.24238281 116.64238281 -7.36914062 116.61914062 C-1.92764111 116.38803447 2.30104317 115.86581373 7 113 C9.32305378 108.58301555 9.24176176 104.29802189 9.1875 99.375 C9.17783203 97.43753906 9.17783203 97.43753906 9.16796875 95.4609375 C9.03663187 92.75478692 8.81208875 90.55970374 8 88 C5.14921909 87.23283149 5.14921909 87.23283149 2 87 C-0.27553958 88.51702639 -1.11445523 90.19552769 -2.5 92.5625 C-4 95 -4 95 -7 97 C-9.625 97.1875 -9.625 97.1875 -12 97 C-13 96 -13 96 -13.3125 93.1875 C-13 90 -13 90 -11.3125 87.6875 C-8.80401508 85.85698398 -7.05917167 85.33990796 -4 85 C-10.17092638 85.26888568 -13.14845158 86.04215787 -18 90 C-21.8125 90.25 -21.8125 90.25 -25 90 C-25.75 87.75 -25.75 87.75 -26 85 C-24.39332518 82.18831906 -22.77804562 81.23420761 -19.703125 80.30859375 C-11.0851807 78.52771798 -1.24265235 77.33659895 7 81 C5.35 79.02 3.7 77.04 2 75 C-1.79547921 75.96776098 -1.79547921 75.96776098 -5 78 C-9.03160191 78.26293056 -10.55892734 78.29404844 -14 76 C-12.125 72.125 -12.125 72.125 -11 71 C-12.41702513 71.14230808 -13.8336096 71.28900746 -15.25 71.4375 C-16.03890625 71.51871094 -16.8278125 71.59992188 -17.640625 71.68359375 C-19.82364639 71.97634993 -21.8773182 72.42064419 -24 73 C-24.12375 73.639375 -24.2475 74.27875 -24.375 74.9375 C-24.58125 75.618125 -24.7875 76.29875 -25 77 C-27.95664519 78.4783226 -30.74229737 78.06032783 -34 78 C-34.36809816 73.4601227 -34.36809816 73.4601227 -32.75 71.4375 C-30.8211377 69.85307739 -29.16529427 69.12247836 -26.8125 68.3125 C-26.09707031 68.06113281 -25.38164062 67.80976562 -24.64453125 67.55078125 C-24.10183594 67.36902344 -23.55914062 67.18726562 -23 67 C-24.2375 67.04125 -25.475 67.0825 -26.75 67.125 C-30.01426921 67.11923274 -32.28683393 66.98269829 -35 65 C-37 62 -37 62 -37 59 C-34.64653604 57.82326802 -33.1193967 57.83376134 -30.5 57.8125 C-29.7059375 57.79832031 -28.911875 57.78414062 -28.09375 57.76953125 C-26 58 -26 58 -24 60 C-21.11282395 60.6837613 -21.11282395 60.6837613 -17.875 61.125 C-16.77929688 61.29257813 -15.68359375 61.46015625 -14.5546875 61.6328125 C-13.71164063 61.75398438 -12.86859375 61.87515625 -12 62 C-13.44481003 58.48188758 -13.78004923 58.09819231 -17.5 56.4375 C-18.655 55.963125 -19.81 55.48875 -21 55 C-23.29013653 51.5647952 -23.17842973 50.014669 -23 46 C-16.69578313 45.51506024 -16.69578313 45.51506024 -13.9375 47.4375 C-6.35357143 57.46785714 -6.35357143 57.46785714 -5.25 62.25 C-3.41482755 66.28737939 -0.37273729 67.12596973 3.58984375 68.82421875 C5.92834588 69.96504394 7.30344797 71.05708398 9 73 C8.76400864 69.27807913 8.0360054 68.03791189 5.41796875 65.28125 C4.3511554 64.34266576 3.27391651 63.41582218 2.1875 62.5 C-2.96101418 58.06569467 -7.00195302 53.43491401 -10.9375 47.875 C-13.30341424 44.72441069 -15.27158767 42.52960506 -19 41 C-22.22861957 40.58607441 -23.94799775 40.97941577 -27 42.1875 C-30 43 -30 43 -32.875 41.8125 C-33.57625 41.214375 -34.2775 40.61625 -35 40 C-35 37 -35 37 -33.8125 35.375 C-30.74044078 33.04447231 -27.89981442 32.87986129 -24.1328125 33.3828125 C-23.14023437 33.62773438 -22.14765625 33.87265625 -21.125 34.125 C-20.13757813 34.35445312 -19.15015625 34.58390625 -18.1328125 34.8203125 C-11.09420176 37.47076193 -7.02211458 41.74082079 -3 47.9375 C0.5222357 53.13235856 3.90277792 57.23248802 9 61 C7.14248484 51.51689629 4.39410859 42.65663844 -3 36 C-8.35299422 32.43133719 -13.5515073 31.66911594 -19.875 31.375 C-20.56335938 31.33632813 -21.25171875 31.29765625 -21.9609375 31.2578125 C-23.64023246 31.16451834 -25.32007767 31.08121762 -27 31 C-27.33 30.01 -27.66 29.02 -28 28 C-25.02920716 25.02920716 -22.15610321 25.2603117 -18.0703125 24.98828125 C-8.61900094 25.02435496 -2.8290239 28.284167 3.90625 34.74609375 C5.76707984 36.74926318 7.41763312 38.77352865 9 41 C9.12067476 38.10380569 9.09617266 36.63379043 8 34 C3.99550815 29.95042944 -0.70151871 26.78625988 -5.5 23.75 C-8.17404223 21.87817044 -9.21280729 21.14877083 -10 18 C-9.84797408 15.27401802 -9.45044491 12.70266946 -9 10 C-5.19090609 10.25971095 -3.44018699 10.58298075 -0.625 13.25 C1 16 1 16 0.8515625 18.46484375 C0.72948994 21.11425897 0.72948994 21.11425897 2.75 22.80078125 C3.86375 23.54908203 3.86375 23.54908203 5 24.3125 C6.11375 25.08013672 6.11375 25.08013672 7.25 25.86328125 C7.8275 26.23839844 8.405 26.61351563 9 27 C7.94848258 23.84544774 6.61545723 21.37740355 4.625 18.75 C1.7491528 14.8096601 -0.71995323 10.74218669 -2 6 C-1.25 2.4375 -1.25 2.4375 0 0 Z M29 11 C29.33 11.556875 29.66 12.11375 30 12.6875 C31.1309601 15.30284522 31.15662974 17.1806646 31 20 C30.21625 20.28875 29.4325 20.5775 28.625 20.875 C25.90328368 21.84912254 25.90328368 21.84912254 24 24 C28.3339145 24 29.73106489 23.73883753 33 21 C34.07767129 17.54024142 34.07767129 17.54024142 34 14 C33.34 13.01 32.68 12.02 32 11 C31.01 11 30.02 11 29 11 Z M42 17 C40.90602769 19.95505672 40.90602769 19.95505672 40.625 23 C39.9693127 26.14729906 39.54492292 27.14024863 37 29 C36.01 29.33 35.02 29.66 34 30 C34 30.66 34 31.32 34 32 C38.47883696 31.55296014 38.47883696 31.55296014 42 29 C44.72869407 29.03287583 47.2966618 29.56397771 50 30 C48.27773504 26.75150023 48.27773504 26.75150023 45 26 C44.26953125 23.93359375 44.26953125 23.93359375 43.8125 21.4375 C43.65394531 20.61121094 43.49539062 19.78492188 43.33203125 18.93359375 C43.22246094 18.29550781 43.11289063 17.65742188 43 17 C42.67 17 42.34 17 42 17 Z M48 43 C46.62810173 46.02982306 46.62810173 46.02982306 46 49 C46.66 49 47.32 49 48 49 C48.20625 48.38125 48.4125 47.7625 48.625 47.125 C50.54775888 44.15346355 52.66594527 43.86975341 56 43 C55.67 42.34 55.34 41.68 55 41 C52.16401302 41 50.49141685 41.62972073 48 43 Z M56 50 C55.3503125 51.423125 55.3503125 51.423125 54.6875 52.875 C53 56 53 56 50 58 C46.86328125 58.1953125 46.86328125 58.1953125 43.3125 58.125 C42.13300781 58.10695313 40.95351562 58.08890625 39.73828125 58.0703125 C38.83464844 58.04710937 37.93101563 58.02390625 37 58 C37 58.66 37 59.32 37 60 C37.804375 60.309375 38.60875 60.61875 39.4375 60.9375 C42 62 42 62 43 63 C43.25 65.875 43.25 65.875 43 69 C42.484375 69.474375 41.96875 69.94875 41.4375 70.4375 C39.61210303 72.06776698 39.61210303 72.06776698 40 75.4375 C41.17265071 79.61506816 42.31763331 80.80811507 46 83 C46.99 83 47.98 83 49 83 C49 82.34 49 81.68 49 81 C48.195625 80.54625 47.39125 80.0925 46.5625 79.625 C44 78 44 78 43 76.0625 C43 74 43 74 44.4375 72.1875 C46.64851227 69.09208283 46.27499145 66.71238451 46 63 C45.67 62.34 45.34 61.68 45 61 C46.3303125 61.12375 46.3303125 61.12375 47.6875 61.25 C51.83445768 60.93702206 53.23445003 60.08161282 56 57 C56.89055736 53.35817665 56.89055736 53.35817665 57 50 C56.67 50 56.34 50 56 50 Z M32 82 C31.66574265 84.37374861 31.66574265 84.37374861 32 87 C33.7109211 88.97098426 33.7109211 88.97098426 36 90 C36.99 89.67 37.98 89.34 39 89 C38.360625 88.5875 37.72125 88.175 37.0625 87.75 C34.79009069 85.82189513 34.39803561 84.88575819 34 82 C33.34 82 32.68 82 32 82 Z " fill="#4C59D4" transform="translate(53,4)"/>
<path d="M0 0 C3.28960166 0.5671727 4.90386681 1.39005143 7 4 C7.4765625 6.2265625 7.4765625 6.2265625 7.625 8.625 C7.60877773 11.61148183 7.60877773 11.61148183 9 14 C9.33 11.03 9.66 8.06 10 5 C11.32 4.67 12.64 4.34 14 4 C16.27928513 8.51761043 16.27072162 12.79237708 16.22705078 17.73754883 C16.22734283 18.60634674 16.22763489 19.47514465 16.22793579 20.37026978 C16.22654608 23.23262634 16.2110017 26.09472034 16.1953125 28.95703125 C16.1915811 30.94528562 16.18873473 32.93354184 16.18673706 34.92179871 C16.17911063 40.14803162 16.15947059 45.3741529 16.1373291 50.6003418 C16.11684938 55.9360198 16.10773079 61.27171588 16.09765625 66.60742188 C16.07622381 77.07166356 16.04209976 87.53582249 16 98 C16.66 98 17.32 98 18 98 C18 92.06 18 86.12 18 80 C21.465 79.01 21.465 79.01 25 78 C27.02478463 76.89350331 27.02478463 76.89350331 28 75 C28.58345476 72.04253508 28.58345476 72.04253508 28 69 C26.12498069 66.62280307 26.12498069 66.62280307 24 65 C24.495 65.556875 24.99 66.11375 25.5 66.6875 C27.31567651 69.48666796 27.65420677 70.72896614 27 74 C24.75 76.3125 24.75 76.3125 22 78 C20.68 78 19.36 78 18 78 C17.9131671 74.541824 17.85966718 71.08392656 17.8125 67.625 C17.78736328 66.64015625 17.76222656 65.6553125 17.73632812 64.640625 C17.72666016 63.69960937 17.71699219 62.75859375 17.70703125 61.7890625 C17.6913208 60.91975098 17.67561035 60.05043945 17.65942383 59.15478516 C17.77181396 58.44370605 17.8842041 57.73262695 18 57 C21.23132509 54.84578327 21.79239149 54.82277111 25.4375 55.0625 C28.21481084 55.10301183 29.79155579 55.08776598 32.375 54 C34.44919574 51.4471437 35.3171371 48.8637832 36.2890625 45.7421875 C37 44 37 44 39 43 C39.495 46.96 39.495 46.96 40 51 C39.21625 51.433125 38.4325 51.86625 37.625 52.3125 C34.78301625 53.89220247 34.78301625 53.89220247 33 57 C29.9609375 57.29296875 29.9609375 57.29296875 26.375 57.1875 C25.18648437 57.16042969 23.99796875 57.13335937 22.7734375 57.10546875 C21.85820313 57.07066406 20.94296875 57.03585938 20 57 C20.495 60.465 20.495 60.465 21 64 C21.7425 63.7525 22.485 63.505 23.25 63.25 C26 63 26 63 28.3125 64.375 C30.42658216 67.66357225 30.6891743 69.94174522 30.5234375 73.8046875 C29.91587314 76.35283056 29.19358059 77.33596902 27.25 79.0625 C24 81 24 81 20 81 C20.14063135 83.29199177 20.28765943 85.58359186 20.4375 87.875 C20.51871094 89.15117188 20.59992188 90.42734375 20.68359375 91.7421875 C20.79206027 94.88300152 20.79206027 94.88300152 22 97 C25.776086 98.08179761 29.40497142 98.10543987 33.3125 98.0625 C34.38113281 98.05347656 35.44976562 98.04445313 36.55078125 98.03515625 C37.76314453 98.01775391 37.76314453 98.01775391 39 98 C38.67 98.66 38.34 99.32 38 100 C33.5899187 101.4700271 29.02811884 101.91036877 24.74609375 99.98828125 C24.16988281 99.66214844 23.59367187 99.33601563 23 99 C23.25642304 100.91864771 23.53073436 102.83490994 23.8125 104.75 C23.96332031 105.81734375 24.11414063 106.8846875 24.26953125 107.984375 C25.02965571 111.12242892 25.72588318 112.73118415 28 115 C31.71339984 116.65039993 36.00636435 116.07234847 40 116 C48.53608247 115.84536082 48.53608247 115.84536082 52 117 C52 118.32 52 119.64 52 121 C47.38073037 121.74708182 43.00668067 122.10506956 38.33032227 122.02172852 C36.40912315 121.99158409 36.40912315 121.99158409 34.44911194 121.96083069 C33.071541 121.93364271 31.69397248 121.90633174 30.31640625 121.87890625 C28.89152332 121.85457054 27.46663187 121.83072878 26.04173279 121.80735779 C22.31151549 121.74485979 18.58145105 121.67569822 14.85137939 121.60510254 C11.03705745 121.53410719 7.22262808 121.46947768 3.40820312 121.40429688 C-4.06131683 121.27572724 -11.53068667 121.14011091 -19 121 C-19 119.68 -19 118.36 -19 117 C-17.70964844 116.96261719 -16.41929688 116.92523438 -15.08984375 116.88671875 C-13.37236851 116.82102298 -11.65492185 116.7545769 -9.9375 116.6875 C-9.08994141 116.66494141 -8.24238281 116.64238281 -7.36914062 116.61914062 C-1.92764111 116.38803447 2.30104317 115.86581373 7 113 C9.32305378 108.58301555 9.24176176 104.29802189 9.1875 99.375 C9.17783203 97.43753906 9.17783203 97.43753906 9.16796875 95.4609375 C9.03663187 92.75478692 8.81208875 90.55970374 8 88 C5.14921909 87.23283149 5.14921909 87.23283149 2 87 C-0.27553958 88.51702639 -1.11445523 90.19552769 -2.5 92.5625 C-4 95 -4 95 -7 97 C-9.625 97.1875 -9.625 97.1875 -12 97 C-13 96 -13 96 -13.3125 93.1875 C-13 90 -13 90 -11.3125 87.6875 C-8.80401508 85.85698398 -7.05917167 85.33990796 -4 85 C-10.17092638 85.26888568 -13.14845158 86.04215787 -18 90 C-21.8125 90.25 -21.8125 90.25 -25 90 C-25.75 87.75 -25.75 87.75 -26 85 C-24.39332518 82.18831906 -22.77804562 81.23420761 -19.703125 80.30859375 C-11.0851807 78.52771798 -1.24265235 77.33659895 7 81 C5.35 79.02 3.7 77.04 2 75 C-1.79547921 75.96776098 -1.79547921 75.96776098 -5 78 C-9.03160191 78.26293056 -10.55892734 78.29404844 -14 76 C-12.125 72.125 -12.125 72.125 -11 71 C-12.41702513 71.14230808 -13.8336096 71.28900746 -15.25 71.4375 C-16.03890625 71.51871094 -16.8278125 71.59992188 -17.640625 71.68359375 C-19.82364639 71.97634993 -21.8773182 72.42064419 -24 73 C-24.12375 73.639375 -24.2475 74.27875 -24.375 74.9375 C-24.58125 75.618125 -24.7875 76.29875 -25 77 C-27.95664519 78.4783226 -30.74229737 78.06032783 -34 78 C-34.36809816 73.4601227 -34.36809816 73.4601227 -32.75 71.4375 C-30.8211377 69.85307739 -29.16529427 69.12247836 -26.8125 68.3125 C-26.09707031 68.06113281 -25.38164062 67.80976562 -24.64453125 67.55078125 C-24.10183594 67.36902344 -23.55914062 67.18726562 -23 67 C-24.2375 67.04125 -25.475 67.0825 -26.75 67.125 C-30.01426921 67.11923274 -32.28683393 66.98269829 -35 65 C-37 62 -37 62 -37 59 C-34.64653604 57.82326802 -33.1193967 57.83376134 -30.5 57.8125 C-29.7059375 57.79832031 -28.911875 57.78414062 -28.09375 57.76953125 C-26 58 -26 58 -24 60 C-21.11282395 60.6837613 -21.11282395 60.6837613 -17.875 61.125 C-16.77929688 61.29257813 -15.68359375 61.46015625 -14.5546875 61.6328125 C-13.71164063 61.75398438 -12.86859375 61.87515625 -12 62 C-13.44481003 58.48188758 -13.78004923 58.09819231 -17.5 56.4375 C-18.655 55.963125 -19.81 55.48875 -21 55 C-23.29013653 51.5647952 -23.17842973 50.014669 -23 46 C-16.69578313 45.51506024 -16.69578313 45.51506024 -13.9375 47.4375 C-6.35357143 57.46785714 -6.35357143 57.46785714 -5.25 62.25 C-3.41482755 66.28737939 -0.37273729 67.12596973 3.58984375 68.82421875 C5.92834588 69.96504394 7.30344797 71.05708398 9 73 C8.76400864 69.27807913 8.0360054 68.03791189 5.41796875 65.28125 C4.3511554 64.34266576 3.27391651 63.41582218 2.1875 62.5 C-2.96101418 58.06569467 -7.00195302 53.43491401 -10.9375 47.875 C-13.30341424 44.72441069 -15.27158767 42.52960506 -19 41 C-22.22861957 40.58607441 -23.94799775 40.97941577 -27 42.1875 C-30 43 -30 43 -32.875 41.8125 C-33.57625 41.214375 -34.2775 40.61625 -35 40 C-35 37 -35 37 -33.8125 35.375 C-30.74044078 33.04447231 -27.89981442 32.87986129 -24.1328125 33.3828125 C-23.14023437 33.62773438 -22.14765625 33.87265625 -21.125 34.125 C-20.13757813 34.35445312 -19.15015625 34.58390625 -18.1328125 34.8203125 C-11.09420176 37.47076193 -7.02211458 41.74082079 -3 47.9375 C0.5222357 53.13235856 3.90277792 57.23248802 9 61 C7.14248484 51.51689629 4.39410859 42.65663844 -3 36 C-8.35299422 32.43133719 -13.5515073 31.66911594 -19.875 31.375 C-20.56335938 31.33632813 -21.25171875 31.29765625 -21.9609375 31.2578125 C-23.64023246 31.16451834 -25.32007767 31.08121762 -27 31 C-27.33 30.01 -27.66 29.02 -28 28 C-25.02920716 25.02920716 -22.15610321 25.2603117 -18.0703125 24.98828125 C-8.61900094 25.02435496 -2.8290239 28.284167 3.90625 34.74609375 C5.76707984 36.74926318 7.41763312 38.77352865 9 41 C9.12067476 38.10380569 9.09617266 36.63379043 8 34 C3.99550815 29.95042944 -0.70151871 26.78625988 -5.5 23.75 C-8.17404223 21.87817044 -9.21280729 21.14877083 -10 18 C-9.84797408 15.27401802 -9.45044491 12.70266946 -9 10 C-5.19090609 10.25971095 -3.44018699 10.58298075 -0.625 13.25 C1 16 1 16 0.8515625 18.46484375 C0.72948994 21.11425897 0.72948994 21.11425897 2.75 22.80078125 C3.86375 23.54908203 3.86375 23.54908203 5 24.3125 C6.11375 25.08013672 6.11375 25.08013672 7.25 25.86328125 C7.8275 26.23839844 8.405 26.61351563 9 27 C7.94848258 23.84544774 6.61545723 21.37740355 4.625 18.75 C1.7491528 14.8096601 -0.71995323 10.74218669 -2 6 C-1.25 2.4375 -1.25 2.4375 0 0 Z " fill="#4A57C5" transform="translate(53,4)"/>
<path d="M0 0 C1.13463349 1.70195024 2.26378515 3.40766796 3.375 5.125 C5.36428172 7.42032507 6.02777865 7.52560636 9 8 C11.67527455 8.04458791 14.3267515 8.04842841 17 8 C25.53608247 7.84536082 25.53608247 7.84536082 29 9 C29 10.32 29 11.64 29 13 C24.38073037 13.74708182 20.00668067 14.10506956 15.33032227 14.02172852 C14.04952286 14.00163223 12.76872345 13.98153595 11.44911194 13.96083069 C10.071541 13.93364271 8.69397248 13.90633174 7.31640625 13.87890625 C5.89152332 13.85457054 4.46663187 13.83072878 3.04173279 13.80735779 C-0.68848451 13.74485979 -4.41854895 13.67569822 -8.14862061 13.60510254 C-11.96294255 13.53410719 -15.77737192 13.46947768 -19.59179688 13.40429688 C-27.06131683 13.27572724 -34.53068667 13.14011091 -42 13 C-42 11.68 -42 10.36 -42 9 C-31.605 8.505 -31.605 8.505 -21 8 C-21.33 8.66 -21.66 9.32 -22 10 C-13.42 10 -4.84 10 4 10 C2.68 8.68 1.36 7.36 0 6 C-0.25 2.75 -0.25 2.75 0 0 Z " fill="#4C55C5" transform="translate(76,112)"/>
<path d="M0 0 C2.92562465 2.79842358 3.92021076 4.15423405 4.3125 8.3125 C4.21021451 15.29348442 2.34400451 24.10863158 -2.5625 29.3125 C-5 31 -5 31 -8 31 C-8.3403125 32.60875 -8.3403125 32.60875 -8.6875 34.25 C-10.16514278 38.47183651 -11.19504008 39.75161459 -15 42 C-18.3125 42.75 -18.3125 42.75 -21 43 C-20.01 42.505 -20.01 42.505 -19 42 C-19 41.34 -19 40.68 -19 40 C-17.68 40 -16.36 40 -15 40 C-15.185625 39.38125 -15.37125 38.7625 -15.5625 38.125 C-16 36 -16 36 -15 34 C-17.97 33.67 -20.94 33.34 -24 33 C-24 31.35 -24 29.7 -24 28 C-20.04 29.98 -20.04 29.98 -16 32 C-16 31.34 -16 30.68 -16 30 C-16.598125 29.9175 -17.19625 29.835 -17.8125 29.75 C-20.5966296 28.79544128 -21.43311142 27.42867729 -23 25 C-22 23 -21 21 -20 19 C-19.93049459 17.45976004 -19.91547643 15.91665012 -19.9375 14.375 C-19.94652344 13.55773437 -19.95554687 12.74046875 -19.96484375 11.8984375 C-19.97644531 11.27195312 -19.98804687 10.64546875 -20 10 C-17.36 9.67 -14.72 9.34 -12 9 C-12.33 9.99 -12.66 10.98 -13 12 C-14.32 12 -15.64 12 -17 12 C-16.90460938 12.69867188 -16.80921875 13.39734375 -16.7109375 14.1171875 C-16.60007812 15.02726562 -16.48921875 15.93734375 -16.375 16.875 C-16.25898437 17.77992187 -16.14296875 18.68484375 -16.0234375 19.6171875 C-16.01570313 20.40351562 -16.00796875 21.18984375 -16 22 C-16.66 22.66 -17.32 23.32 -18 24 C-18.33 24.66 -18.66 25.32 -19 26 C-17.35 26 -15.7 26 -14 26 C-13.67 27.65 -13.34 29.3 -13 31 C-12.01 30.67 -11.02 30.34 -10 30 C-9.67 29.34 -9.34 28.68 -9 28 C-8.01 27.34 -7.02 26.68 -6 26 C-6.33 25.34 -6.66 24.68 -7 24 C-6.34 24 -5.68 24 -5 24 C-4.34 22.35 -3.68 20.7 -3 19 C-2.01 19.33 -1.02 19.66 0 20 C0.33 16.7 0.66 13.4 1 10 C1.66 10 2.32 10 3 10 C2.505 9.0925 2.01 8.185 1.5 7.25 C0 4 0 4 0 0 Z " fill="#4F5AC3" transform="translate(118,55)"/>
<path d="M0 0 C3.87340676 3.31243061 7.17192535 6.75788803 10 11 C9.92928 7.46400002 9.80836985 4.8958137 7.375 2.19921875 C5.62779084 0.72324972 3.86215167 -0.67266996 2 -2 C5 -2 5 -2 8 -1 C8 -0.34 8 0.32 8 1 C8.99 1.33 9.98 1.66 11 2 C11.96847302 4.90541905 12.19582812 6.96637454 12.25 10 C12.27578125 10.86625 12.3015625 11.7325 12.328125 12.625 C11.93058172 15.50245609 11.0730237 16.07355373 9 18 C8.28552357 20.10332891 8.28552357 20.10332891 8 22 C7.64808594 21.20335938 7.29617187 20.40671875 6.93359375 19.5859375 C3.39332365 11.98775989 0.2572752 6.13906326 -7.7265625 2.890625 C-11.44776922 1.87817257 -15.04380106 1.5531953 -18.875 1.375 C-19.56335937 1.33632813 -20.25171875 1.29765625 -20.9609375 1.2578125 C-22.64023246 1.16451834 -24.32007767 1.08121762 -26 1 C-26.33 0.01 -26.66 -0.98 -27 -2 C-20.50505629 -8.49494371 -6.8132821 -4.37641478 0 0 Z " fill="#4E59BD" transform="translate(52,34)"/>
<path d="M0 0 C0.33 1.32 0.66 2.64 1 4 C0.01 4 -0.98 4 -2 4 C-2.2475 4.53625 -2.495 5.0725 -2.75 5.625 C-4.98609906 9.87358821 -6.96811275 13.31207517 -11 16 C-13.625 16.1875 -13.625 16.1875 -16 16 C-17 15 -17 15 -17.3125 12.1875 C-17 9 -17 9 -15.3125 6.6875 C-12.80401508 4.85698398 -11.05917167 4.33990796 -8 4 C-14.17092638 4.26888568 -17.14845158 5.04215787 -22 9 C-25.8125 9.25 -25.8125 9.25 -29 9 C-29.33 7.35 -29.66 5.7 -30 4 C-21.97474919 -2.15269228 -9.56880868 -0.1148257 0 0 Z " fill="#4956C3" transform="translate(57,85)"/>
<path d="M0 0 C0.66 0.99 1.32 1.98 2 3 C1.67 3.66 1.34 4.32 1 5 C2.98 5 4.96 5 7 5 C7 5.66 7 6.32 7 7 C6.01 7 5.02 7 4 7 C3.67 7.66 3.34 8.32 3 9 C3.33 9.33 3.66 9.66 4 10 C3.34 10.66 2.68 11.32 2 12 C0.5 10.625 0.5 10.625 -1 9 C-1 8.34 -1 7.68 -1 7 C-2.98 7.33 -4.96 7.66 -7 8 C-7.93380961 12.53140653 -7.93380961 12.53140653 -7 17 C-7.66 17 -8.32 17 -9 17 C-9 17.66 -9 18.32 -9 19 C-9.66 19.33 -10.32 19.66 -11 20 C-10.34 20.66 -9.68 21.32 -9 22 C-8.34 22.66 -7.68 23.32 -7 24 C-7.375 26.625 -7.375 26.625 -8 29 C-9.98 29.33 -11.96 29.66 -14 30 C-15.34347563 25.9695731 -14.71584892 22.38940038 -14.25 18.25 C-14.17523438 17.46367187 -14.10046875 16.67734375 -14.0234375 15.8671875 C-13.45934265 10.72195874 -12.42641346 6.59369539 -10 2 C-6.32003497 -0.45331002 -4.34586828 -0.39507893 0 0 Z " fill="#4B58DA" transform="translate(87,7)"/>
<path d="M0 0 C0 0.33 0 0.66 0 1 C-1.6396875 1.2165625 -1.6396875 1.2165625 -3.3125 1.4375 C-6.93122987 1.88288104 -6.93122987 1.88288104 -10 3 C-10.6852487 4.87510806 -10.6852487 4.87510806 -11 7 C-11.33 8.11375 -11.66 9.2275 -12 10.375 C-13.52897084 16.43340326 -13.89008852 22.7688643 -14 29 C-12.93354885 30.29633621 -12.93354885 30.29633621 -10.4375 30.0625 C-9.2309375 30.0315625 -9.2309375 30.0315625 -8 30 C-7.34 31.32 -6.68 32.64 -6 34 C-9.32307692 37.93846154 -9.32307692 37.93846154 -12.75 38.25 C-13.4925 38.1675 -14.235 38.085 -15 38 C-12.9927092 34.9890638 -12.16115776 34.36983503 -9 33 C-12.465 33.495 -12.465 33.495 -16 34 C-16.0872253 29.60429206 -16.14046869 25.20880729 -16.1875 20.8125 C-16.21263672 19.56662109 -16.23777344 18.32074219 -16.26367188 17.03710938 C-16.27333984 15.83505859 -16.28300781 14.63300781 -16.29296875 13.39453125 C-16.3086792 12.28956299 -16.32438965 11.18459473 -16.34057617 10.04614258 C-15.84354083 5.60061576 -14.17475242 3.00693065 -10.8125 0.125 C-6.82976778 -1.46809289 -4.18876765 -0.78095668 0 0 Z " fill="#4B56B1" transform="translate(87,6)"/>
<path d="M0 0 C3.80909391 0.25971095 5.55981301 0.58298075 8.375 3.25 C10.17703245 6.29959339 10 7.57510499 10 11 C11.89584109 13.31377147 11.89584109 13.31377147 14 15 C13.01 15 12.02 15 11 15 C11 14.34 11 13.68 11 13 C10.01 13.495 10.01 13.495 9 14 C9.33 14.99 9.66 15.98 10 17 C5.54705596 15.6005033 2.91905838 13.64882297 0 10 C-0.94927623 6.06728419 -1.2818632 3.8455896 0 0 Z " fill="#4B54B4" transform="translate(44,14)"/>
<path d="M0 0 C-0.99 0.66 -1.98 1.32 -3 2 C11.85 2.495 11.85 2.495 27 3 C27 3.33 27 3.66 27 4 C11.16 4 -4.68 4 -21 4 C-21 2.68 -21 1.36 -21 0 C-17.87549468 -0.19645093 -14.75038555 -0.38063489 -11.625 -0.5625 C-10.29082031 -0.64661133 -10.29082031 -0.64661133 -8.9296875 -0.73242188 C-7.65351562 -0.80493164 -7.65351562 -0.80493164 -6.3515625 -0.87890625 C-5.56604004 -0.9260376 -4.78051758 -0.97316895 -3.97119141 -1.02172852 C-2 -1 -2 -1 0 0 Z " fill="#4750A6" transform="translate(55,121)"/>
<path d="M0 0 C0.33 0.66 0.66 1.32 1 2 C1.598125 2.12375 2.19625 2.2475 2.8125 2.375 C5.93033466 3.2658099 7.00438294 4.42501024 9 7 C9.79899049 9.24978902 10.46296636 11.5235197 11.140625 13.8125 C12.37323407 16.95005035 14.51951168 18.78767258 17 21 C17 21.66 17 22.32 17 23 C16.01 22.67 15.02 22.34 14 22 C13.67 21.34 13.34 20.68 13 20 C9.97065509 19.34227572 9.97065509 19.34227572 7 19 C7 18.34 7 17.68 7 17 C7.66 17 8.32 17 9 17 C8.67 15.68 8.34 14.36 8 13 C6.68 12.67 5.36 12.34 4 12 C3.4375 10.0625 3.4375 10.0625 3 8 C3.33 7.67 3.66 7.34 4 7 C3.34 6.5875 2.68 6.175 2 5.75 C1.34 5.1725 0.68 4.595 0 4 C0 2.68 0 1.36 0 0 Z M0 6 C2 7 2 7 2 7 Z " fill="#505BCA" transform="translate(102,19)"/>
<path d="M0 0 C0 1.32 0 2.64 0 4 C-6.65637843 5.23839599 -13.2471936 5.09139136 -20 5 C-20 4.67 -20 4.34 -20 4 C-16.535 3.505 -16.535 3.505 -13 3 C-14.98 2.34 -16.96 1.68 -19 1 C-19 0.67 -19 0.34 -19 0 C-12.41816638 -0.8931507 -6.57849492 -0.95494281 0 0 Z " fill="#4E56A0" transform="translate(105,121)"/>
<path d="M0 0 C0.89130413 2.6739124 1.47731534 5.23723823 2 8 C1.21625 8.433125 0.4325 8.86625 -0.375 9.3125 C-3.21698375 10.89220247 -3.21698375 10.89220247 -5 14 C-9.35647806 14.41996896 -13.61557569 14.12895366 -18 14 C-18.33 20.6 -18.66 27.2 -19 34 C-18.34 34.33 -17.68 34.66 -17 35 C-17.99 35 -18.98 35 -20 35 C-20.0868329 31.541824 -20.14033282 28.08392656 -20.1875 24.625 C-20.21263672 23.64015625 -20.23777344 22.6553125 -20.26367188 21.640625 C-20.27333984 20.69960937 -20.28300781 19.75859375 -20.29296875 18.7890625 C-20.3086792 17.91975098 -20.32438965 17.05043945 -20.34057617 16.15478516 C-20.22818604 15.44370605 -20.1157959 14.73262695 -20 14 C-16.76867491 11.84578327 -16.20760851 11.82277111 -12.5625 12.0625 C-9.78518916 12.10301183 -8.20844421 12.08776598 -5.625 11 C-3.54941936 8.44543921 -2.6326752 5.85162379 -1.61328125 2.7421875 C-1 1 -1 1 0 0 Z " fill="#4E54AD" transform="translate(91,47)"/>
<path d="M0 0 C0.33 0.66 0.66 1.32 1 2 C1.66 2 2.32 2 3 2 C3 3.65 3 5.3 3 7 C3.66 7 4.32 7 5 7 C4.67 7.99 4.34 8.98 4 10 C-0.95 9.67 -5.9 9.34 -11 9 C-10.01 8.34 -9.02 7.68 -8 7 C-7.26656572 3.93443402 -7.26656572 3.93443402 -7 1 C-6.566875 1.474375 -6.13375 1.94875 -5.6875 2.4375 C-3.97690387 4.23686957 -3.97690387 4.23686957 -1 5 C-0.67 3.35 -0.34 1.7 0 0 Z " fill="#4957D5" transform="translate(44,64)"/>
<path d="M0 0 C0.66 0 1.32 0 2 0 C2 0.99 2 1.98 2 3 C2.99 3.33 3.98 3.66 5 4 C5.33 5.65 5.66 7.3 6 9 C5.01 8.67 4.02 8.34 3 8 C3 6.68 3 5.36 3 4 C2.34 4 1.68 4 1 4 C1.6954344 7.00384054 1.6954344 7.00384054 3 10 C4.93400917 11.06754834 4.93400917 11.06754834 7 11 C7.66 10.67 8.32 10.34 9 10 C9.12375 10.969375 9.2475 11.93875 9.375 12.9375 C9.58125 13.948125 9.7875 14.95875 10 16 C10.66 16.33 11.32 16.66 12 17 C10.68 17.99 9.36 18.98 8 20 C7.34 17.69 6.68 15.38 6 13 C4.824375 12.8453125 4.824375 12.8453125 3.625 12.6875 C1 12 1 12 -1 9 C-1.75 6 -1.75 6 -2 3 C-1.34 2.01 -0.68 1.02 0 0 Z " fill="#4D58BF" transform="translate(84,82)"/>
<path d="M0 0 C1.48206495 0.254496 2.96068615 0.52911762 4.4375 0.8125 C5.67306641 1.03873047 5.67306641 1.03873047 6.93359375 1.26953125 C7.61550781 1.51058594 8.29742187 1.75164063 9 2 C9.33 2.99 9.66 3.98 10 5 C6.30691024 6.23102992 3.11949288 5.87175152 -0.6875 5.5625 C-1.7403418 5.48418945 -1.7403418 5.48418945 -2.81445312 5.40429688 C-4.54338054 5.27492135 -6.27175355 5.13817469 -8 5 C-8 4.01 -8 3.02 -8 2 C-5.36 2 -2.72 2 0 2 C0 1.34 0 0.68 0 0 Z " fill="#4A59C4" transform="translate(37,29)"/>
<path d="M0 0 C4.75 0.75 4.75 0.75 7 3 C7.34490322 7.05261287 7.30163882 8.54754176 5 12 C4.34 12 3.68 12 3 12 C3.33 14.31 3.66 16.62 4 19 C3.01 19 2.02 19 1 19 C-0.125 16.75 -0.125 16.75 -1 14 C-0.125 11.6875 -0.125 11.6875 1 10 C2.32 10 3.64 10 5 10 C4.81870185 6.56206661 4.81870185 6.56206661 4 3 C2.06402968 1.48705712 2.06402968 1.48705712 0 1 C0 0.67 0 0.34 0 0 Z " fill="#515DBF" transform="translate(90,64)"/>
<path d="M0 0 C0.33 1.65 0.66 3.3 1 5 C0.34 5 -0.32 5 -1 5 C-1 6.32 -1 7.64 -1 9 C-5.875 7.125 -5.875 7.125 -7 6 C-7.04063832 4.33382885 -7.042721 2.66611905 -7 1 C-3.375 -1.125 -3.375 -1.125 0 0 Z " fill="#4D58CC" transform="translate(53,18)"/>
<path d="M0 0 C0.33 0 0.66 0 1 0 C1.33 3.63 1.66 7.26 2 11 C8.60650657 10.51029799 8.60650657 10.51029799 15 9 C14.25 10.9375 14.25 10.9375 13 13 C10.06517036 14.02976479 7.33960328 14.10793534 4.25 14.0625 C2.14625 14.0315625 2.14625 14.0315625 0 14 C0 9.38 0 4.76 0 0 Z " fill="#4E55AD" transform="translate(71,44)"/>
<path d="M0 0 C1.98 0 3.96 0 6 0 C5.34 1.65 4.68 3.3 4 5 C3.34 5 2.68 5 2 5 C2 5.99 2 6.98 2 8 C0.02 8 -1.96 8 -4 8 C-3.67 6.35 -3.34 4.7 -3 3 C-2.01 2.67 -1.02 2.34 0 2 C0 1.34 0 0.68 0 0 Z " fill="#4959D4" transform="translate(45,91)"/>
<path d="M0 0 C2.00720923 0.28674418 4.0085944 0.61866701 6 1 C6 2.32 6 3.64 6 5 C7.32 5.66 8.64 6.32 10 7 C10 7.66 10 8.32 10 9 C2.25 7.125 2.25 7.125 0 6 C-0.6875 3.5 -0.6875 3.5 -1 1 C-0.67 0.67 -0.34 0.34 0 0 Z " fill="#4B58D5" transform="translate(33,52)"/>
<path d="M0 0 C0.495 0.309375 0.99 0.61875 1.5 0.9375 C4.97986781 2.41644382 8.24028509 2.62402851 12 3 C12 3.66 12 4.32 12 5 C10.39592672 5.02708567 8.7917215 5.04643483 7.1875 5.0625 C5.84751953 5.07990234 5.84751953 5.07990234 4.48046875 5.09765625 C2 5 2 5 -1 4 C-1 4.66 -1 5.32 -1 6 C-2.32 5.67 -3.64 5.34 -5 5 C-3.35 3.35 -1.7 1.7 0 0 Z " fill="#495AD4" transform="translate(25,38)"/>
<path d="M0 0 C3.375 0.25 3.375 0.25 7 1 C8.4375 3.0625 8.4375 3.0625 9 5 C5.67692308 8.93846154 5.67692308 8.93846154 2.25 9.25 C1.5075 9.1675 0.765 9.085 0 9 C2.0072908 5.9890638 2.83884224 5.36983503 6 4 C4.02 4 2.04 4 0 4 C0 2.68 0 1.36 0 0 Z " fill="#4A54C3" transform="translate(72,35)"/>
<path d="M0 0 C2 3 2 3 2.8125 5.875 C4.20773275 9.54666514 6.17931281 11.32777003 9 14 C9 14.66 9 15.32 9 16 C8.01 15.67 7.02 15.34 6 15 C5.67 14.34 5.34 13.68 5 13 C1.97065509 12.34227572 1.97065509 12.34227572 -1 12 C-1 11.34 -1 10.68 -1 10 C-0.34 10 0.32 10 1 10 C0.67 6.7 0.34 3.4 0 0 Z " fill="#535BBC" transform="translate(110,26)"/>
<path d="M0 0 C3.07508636 2.94138695 3.94620229 4.21993328 4.25 8.625 C4.21611381 13.25046546 2.81072855 16.77496671 1 21 C-0.1700097 17.08263419 0.30415983 14.02040985 1 10 C1.66 10 2.32 10 3 10 C2.2575 8.63875 2.2575 8.63875 1.5 7.25 C0 4 0 4 0 0 Z " fill="#5862BD" transform="translate(118,55)"/>
<path d="M0 0 C0 0.66 0 1.32 0 2 C-2.64 2.33 -5.28 2.66 -8 3 C-8 3.33 -8 3.66 -8 4 C-4.04 4.33 -0.08 4.66 4 5 C4 5.33 4 5.66 4 6 C-0.95 6 -5.9 6 -11 6 C-11.33 5.01 -11.66 4.02 -12 3 C-8.62446616 -0.37553384 -4.59080647 -0.1311659 0 0 Z " fill="#4B549F" transform="translate(37,29)"/>
<path d="M0 0 C0.86431641 0.43699219 0.86431641 0.43699219 1.74609375 0.8828125 C3.1654511 1.58634145 4.59423389 2.27145425 6.03515625 2.9296875 C12.94836724 6.15318858 12.94836724 6.15318858 15 10 C15 10.66 15 11.32 15 12 C14.01 11.67 13.02 11.34 12 11 C11.3125 8.9375 11.3125 8.9375 11 7 C10.30132812 6.93941406 9.60265625 6.87882813 8.8828125 6.81640625 C7.97273438 6.73261719 7.06265625 6.64882812 6.125 6.5625 C5.22007813 6.48128906 4.31515625 6.40007813 3.3828125 6.31640625 C1 6 1 6 -1 5 C-0.34 4.01 0.32 3.02 1 2 C0.67 1.34 0.34 0.68 0 0 Z " fill="#515AAF" transform="translate(87,7)"/>
<path d="M0 0 C3.63 0 7.26 0 11 0 C11 1.65 11 3.3 11 5 C7.04 5 3.08 5 -1 5 C-1 4.67 -1 4.34 -1 4 C2.465 3.505 2.465 3.505 6 3 C4.02 2.34 2.04 1.68 0 1 C0 0.67 0 0.34 0 0 Z " fill="#5B67AA" transform="translate(86,121)"/>
<path d="M0 0 C0.99 0.33 1.98 0.66 3 1 C4.89212737 1.22179785 6.78884472 1.40614015 8.6875 1.5625 C9.68136719 1.64628906 10.67523438 1.73007813 11.69921875 1.81640625 C12.83810547 1.90728516 12.83810547 1.90728516 14 2 C14 2.33 14 2.66 14 3 C13.25234375 3.13277344 12.5046875 3.26554687 11.734375 3.40234375 C10.25710937 3.66724609 10.25710937 3.66724609 8.75 3.9375 C7.77546875 4.11152344 6.8009375 4.28554687 5.796875 4.46484375 C2.36081112 5.08789448 2.36081112 5.08789448 -1 6 C-2.28436734 7.9837767 -2.28436734 7.9837767 -3 10 C-3 8.35 -3 6.7 -3 5 C-1.68 4.34 -0.36 3.68 1 3 C0.01 2.34 -0.98 1.68 -2 1 C-1.34 0.67 -0.68 0.34 0 0 Z " fill="#4952B3" transform="translate(30,71)"/>
<path d="M0 0 C1.98 0.66 3.96 1.32 6 2 C6 2.66 6 3.32 6 4 C6.99 4.33 7.98 4.66 9 5 C10.00496852 8.01490557 10.10335303 10.04181692 10.0625 13.1875 C10.05347656 14.08855469 10.04445313 14.98960938 10.03515625 15.91796875 C10.02355469 16.60503906 10.01195313 17.29210937 10 18 C9.01 17.67 8.02 17.34 7 17 C6.3125 14.9375 6.3125 14.9375 6 13 C6.66 13.33 7.32 13.66 8 14 C7.92954256 10.47712814 7.8296633 7.90146108 5.375 5.234375 C4.1065297 4.18072629 2.81369931 3.15558057 1.49609375 2.1640625 C1.00238281 1.77992187 0.50867187 1.39578125 0 1 C0 0.67 0 0.34 0 0 Z " fill="#4550AF" transform="translate(54,31)"/>
<path d="M0 0 C0.33 0.66 0.66 1.32 1 2 C-0.65 2.33 -2.3 2.66 -4 3 C-4.33 3.99 -4.66 4.98 -5 6 C-2.58354218 6.16687448 -2.58354218 6.16687448 0 6 C0.66 5.34 1.32 4.68 2 4 C4.125 4.375 4.125 4.375 6 5 C2.18706566 7.69148306 -0.33489303 8.50707684 -5 8 C-5.99 7.34 -6.98 6.68 -8 6 C-7.375 4.125 -7.375 4.125 -6 2 C-2.875 0.75 -2.875 0.75 0 0 Z " fill="#4251AD" transform="translate(47,74)"/>
<path d="M0 0 C0.66 0.33 1.32 0.66 2 1 C1.175 1.804375 0.35 2.60875 -0.5 3.4375 C-3.11638731 5.52263018 -3.11638731 5.52263018 -3 7 C-0.69 7.33 1.62 7.66 4 8 C3.01 8.66 2.02 9.32 1 10 C-3.16943993 9.06400328 -4.58410733 8.62383901 -7 5 C-4.63707344 2.47411298 -3.33537489 1.11179163 0 0 Z " fill="#3F50A1" transform="translate(24,37)"/>
<path d="M0 0 C0.33 0.99 0.66 1.98 1 3 C5.455 2.505 5.455 2.505 10 2 C8.9375 4 8.9375 4 7 6 C3.3125 6.25 3.3125 6.25 0 6 C-0.38218767 4.34385343 -0.71395102 2.67542976 -1 1 C-0.67 0.67 -0.34 0.34 0 0 Z " fill="#4A57B4" transform="translate(28,88)"/>
<path d="M0 0 C2.0625 0.4375 2.0625 0.4375 4 1 C3.67 1.99 3.34 2.98 3 4 C2.34 4 1.68 4 1 4 C1 6.31 1 8.62 1 11 C0.34 11 -0.32 11 -1 11 C-1.02688151 9.35425434 -1.04634123 7.70838587 -1.0625 6.0625 C-1.07410156 5.14597656 -1.08570313 4.22945312 -1.09765625 3.28515625 C-1 1 -1 1 0 0 Z " fill="#4953AD" transform="translate(64,8)"/>
<path d="M0 0 C1.67542976 0.28604898 3.34385343 0.61781233 5 1 C5.12375 1.639375 5.2475 2.27875 5.375 2.9375 C5.684375 3.9584375 5.684375 3.9584375 6 5 C6.66 5.33 7.32 5.66 8 6 C7.01 6.495 7.01 6.495 6 7 C2.63050557 5.31525278 1.12055614 4.1808342 -1 1 C-0.67 0.67 -0.34 0.34 0 0 Z " fill="#4D56CE" transform="translate(47,56)"/>
<path d="M0 0 C0.33 0 0.66 0 1 0 C1.08131463 1.43655854 1.13933559 2.8744483 1.1875 4.3125 C1.22230469 5.11300781 1.25710937 5.91351563 1.29296875 6.73828125 C0.93801608 9.47851584 0.10633718 10.29171079 -2 12 C-2.66 11.67 -3.32 11.34 -4 11 C-3.67 9.35 -3.34 7.7 -3 6 C-2.01 5.67 -1.02 5.34 0 5 C0 3.35 0 1.7 0 0 Z " fill="#535DCA" transform="translate(119,42)"/>
<path d="M0 0 C0.66 0 1.32 0 2 0 C2 2.25 2 2.25 1 5 C-1.52667787 6.67198768 -4.19936568 7.85805571 -7 9 C-7 8.01 -7 7.02 -7 6 C-6.34 6.33 -5.68 6.66 -5 7 C-5 6.34 -5 5.68 -5 5 C-4.34 5 -3.68 5 -3 5 C-3.33 4.01 -3.66 3.02 -4 2 C-3.34 1.67 -2.68 1.34 -2 1 C-2 1.66 -2 2.32 -2 3 C-1.34 3 -0.68 3 0 3 C0 2.01 0 1.02 0 0 Z " fill="#4A57BC" transform="translate(83,19)"/>
<path d="M0 0 C1.65 0.33 3.3 0.66 5 1 C5 2.32 5 3.64 5 5 C2.69 5 0.38 5 -2 5 C-1.34 3.35 -0.68 1.7 0 0 Z " fill="#4D59D3" transform="translate(22,76)"/>
<path d="M0 0 C0.33 1.32 0.66 2.64 1 4 C0.360625 4.103125 -0.27875 4.20625 -0.9375 4.3125 C-1.618125 4.539375 -2.29875 4.76625 -3 5 C-3.33 5.99 -3.66 6.98 -4 8 C-4 7.34 -4 6.68 -4 6 C-5.32 5.67 -6.64 5.34 -8 5 C-5.44008376 2.98863724 -2.95409701 1.37154504 0 0 Z " fill="#4E58C4" transform="translate(85,25)"/>
<path d="M0 0 C0.33 0.66 0.66 1.32 1 2 C1.66 2.33 2.32 2.66 3 3 C-1.41225737 4.47075246 -4.48281619 5.36884358 -9 4 C-8.67 3.34 -8.34 2.68 -8 2 C-5.36 2 -2.72 2 0 2 C0 1.34 0 0.68 0 0 Z " fill="#4857D2" transform="translate(37,29)"/>
<path d="M0 0 C2.31 0 4.62 0 7 0 C7.33 1.98 7.66 3.96 8 6 C6.68 6 5.36 6 4 6 C3.67 4.68 3.34 3.36 3 2 C2.01 2.33 1.02 2.66 0 3 C0 2.01 0 1.02 0 0 Z " fill="#4B59D5" transform="translate(20,63)"/>
<path d="M0 0 C2.31 0 4.62 0 7 0 C6.67 0.99 6.34 1.98 6 3 C5.01 3.33 4.02 3.66 3 4 C2.67 4.99 2.34 5.98 2 7 C1.34 6.67 0.68 6.34 0 6 C0 4.02 0 2.04 0 0 Z " fill="#5055BB" transform="translate(30,50)"/>
<path d="M0 0 C0.99 1.485 0.99 1.485 2 3 C3.9466071 4.21418833 3.9466071 4.21418833 6.125 5.1875 C6.84945312 5.53167969 7.57390625 5.87585938 8.3203125 6.23046875 C8.87460937 6.48441406 9.42890625 6.73835938 10 7 C7.53721199 8.231394 5.7204945 8.07159196 3 8 C2.67 7.01 2.34 6.02 2 5 C1.34 5 0.68 5 0 5 C0 3.35 0 1.7 0 0 Z " fill="#4550B5" transform="translate(47,66)"/>
<path d="M0 0 C0.66 0.66 1.32 1.32 2 2 C1.3503125 2.5878125 1.3503125 2.5878125 0.6875 3.1875 C-1.14560261 5.02238902 -1.14560261 5.02238902 -2.5625 7.6875 C-3.2740625 8.8321875 -3.2740625 8.8321875 -4 10 C-4.66 10 -5.32 10 -6 10 C-6 9.01 -6 8.02 -6 7 C-5.34 7 -4.68 7 -4 7 C-3.34 5.35 -2.68 3.7 -2 2 C-1.34 2 -0.68 2 0 2 C0 1.34 0 0.68 0 0 Z " fill="#4B57B7" transform="translate(53,89)"/>
<path d="M0 0 C0 0.99 0 1.98 0 3 C-2.31 3.66 -4.62 4.32 -7 5 C-7 3.35 -7 1.7 -7 0 C-2.25 -1.125 -2.25 -1.125 0 0 Z " fill="#4D5CD8" transform="translate(58,86)"/>
<path d="M0 0 C1.22589844 0.01353516 1.22589844 0.01353516 2.4765625 0.02734375 C3.41628906 0.04474609 3.41628906 0.04474609 4.375 0.0625 C4.375 0.3925 4.375 0.7225 4.375 1.0625 C2.065 1.0625 -0.245 1.0625 -2.625 1.0625 C-3.95833333 4.0625 -3.95833333 4.0625 -2.625 7.0625 C-3.285 7.0625 -3.945 7.0625 -4.625 7.0625 C-6.625 4.0625 -6.625 4.0625 -6.625 1.0625 C-4.21954362 -0.14022819 -2.67503047 -0.03821472 0 0 Z " fill="#4A54B0" transform="translate(22.625,61.9375)"/>
<path d="M0 0 C1.81325551 0.11351517 3.62563357 0.24112961 5.4375 0.375 C6.95150391 0.47941406 6.95150391 0.47941406 8.49609375 0.5859375 C9.73552734 0.79089844 9.73552734 0.79089844 11 1 C11.33 1.66 11.66 2.32 12 3 C7.05 3 2.1 3 -3 3 C-2.01 2.67 -1.02 2.34 0 2 C0 1.34 0 0.68 0 0 Z " fill="#4356BC" transform="translate(24,42)"/>
<path d="M0 0 C1.5625 1.8125 1.5625 1.8125 3 4 C2.67 4.99 2.34 5.98 2 7 C-0.66666667 6.33333333 -3.33333333 5.66666667 -6 5 C-5.195625 4.54625 -4.39125 4.0925 -3.5625 3.625 C-0.91143428 2.25274335 -0.91143428 2.25274335 0 0 Z " fill="#4956BC" transform="translate(61,115)"/>
<path d="M0 0 C0.99 0 1.98 0 3 0 C3 0.66 3 1.32 3 2 C3.969375 2.12375 4.93875 2.2475 5.9375 2.375 C7.4534375 2.684375 7.4534375 2.684375 9 3 C9.33 3.66 9.66 4.32 10 5 C8.68 4.67 7.36 4.34 6 4 C5.67 4.66 5.34 5.32 5 6 C3.31237149 4.3545622 1.6459651 2.68711423 0 1 C0 0.67 0 0.34 0 0 Z " fill="#4D57CA" transform="translate(52,27)"/>
<path d="M0 0 C3.40424844 1.13474948 4.21653709 1.96811304 6 5 C5.67 5.99 5.34 6.98 5 8 C3.0625 7.375 3.0625 7.375 1 6 C0.25 2.875 0.25 2.875 0 0 Z " fill="#4A59D9" transform="translate(58,18)"/>
<path d="M0 0 C5.75 -0.125 5.75 -0.125 8 1 C7.34 2.32 6.68 3.64 6 5 C4.02 4.01 2.04 3.02 0 2 C0 1.34 0 0.68 0 0 Z " fill="#4E58DC" transform="translate(94,18)"/>
<path d="M0 0 C2.475 0.99 2.475 0.99 5 2 C5 2.99 5 3.98 5 5 C3.68 5.33 2.36 5.66 1 6 C0 1.125 0 1.125 0 0 Z " fill="#3D4AD3" transform="translate(96,120)"/>
<path d="M0 0 C0.66 1.32 1.32 2.64 2 4 C3.32 3.67 4.64 3.34 6 3 C5.67 3.66 5.34 4.32 5 5 C1.9375 5.625 1.9375 5.625 -1 6 C-1 5.34 -1 4.68 -1 4 C-1.66 3.67 -2.32 3.34 -3 3 C-2.01 3 -1.02 3 0 3 C0 2.01 0 1.02 0 0 Z " fill="#4352CE" transform="translate(48,73)"/>
<path d="M0 0 C3.16115776 1.36983503 3.9927092 1.9890638 6 5 C3.69 5.33 1.38 5.66 -1 6 C-0.649375 5.38125 -0.29875 4.7625 0.0625 4.125 C0.371875 3.42375 0.68125 2.7225 1 2 C0.67 1.34 0.34 0.68 0 0 Z " fill="#4D57BA" transform="translate(87,7)"/>
<path d="M0 0 C0.66 0.33 1.32 0.66 2 1 C0.37660195 2.70884005 -1.29319053 4.37446717 -3 6 C-3.66 6 -4.32 6 -5 6 C-4.75 4.125 -4.75 4.125 -4 2 C-2.0625 0.6875 -2.0625 0.6875 0 0 Z " fill="#4951B6" transform="translate(24,37)"/>
</svg>
